<mxfile host="app.diagrams.net" agent="Mozilla/5.0 (Windows NT 10.0; Win64; x64) AppleWebKit/537.36 (KHTML, like Gecko) Chrome/138.0.0.0 Safari/537.36" version="28.0.5">
  <diagram name="페이지-1" id="WXD_dT_17actzUEaw2St">
    <mxGraphModel dx="784" dy="1136" grid="1" gridSize="10" guides="1" tooltips="1" connect="1" arrows="1" fold="1" page="1" pageScale="1" pageWidth="827" pageHeight="1169" math="0" shadow="0">
      <root>
        <mxCell id="0" />
        <mxCell id="1" parent="0" />
        <mxCell id="VBIrDwcT7hmqIL0TSOzX-1" value="1" style="ellipse;whiteSpace=wrap;html=1;aspect=fixed;" vertex="1" parent="1">
          <mxGeometry x="180" y="310" width="30" height="30" as="geometry" />
        </mxCell>
        <mxCell id="VBIrDwcT7hmqIL0TSOzX-2" value="2" style="ellipse;whiteSpace=wrap;html=1;aspect=fixed;" vertex="1" parent="1">
          <mxGeometry x="180" y="370" width="30" height="30" as="geometry" />
        </mxCell>
        <mxCell id="VBIrDwcT7hmqIL0TSOzX-3" value="3" style="ellipse;whiteSpace=wrap;html=1;aspect=fixed;" vertex="1" parent="1">
          <mxGeometry x="180" y="420" width="30" height="30" as="geometry" />
        </mxCell>
        <mxCell id="VBIrDwcT7hmqIL0TSOzX-4" value="4" style="ellipse;whiteSpace=wrap;html=1;aspect=fixed;" vertex="1" parent="1">
          <mxGeometry x="180" y="480" width="30" height="30" as="geometry" />
        </mxCell>
        <mxCell id="VBIrDwcT7hmqIL0TSOzX-5" value="5" style="ellipse;whiteSpace=wrap;html=1;aspect=fixed;" vertex="1" parent="1">
          <mxGeometry x="360" y="250" width="30" height="30" as="geometry" />
        </mxCell>
        <mxCell id="VBIrDwcT7hmqIL0TSOzX-6" value="6" style="ellipse;whiteSpace=wrap;html=1;aspect=fixed;" vertex="1" parent="1">
          <mxGeometry x="384" y="330" width="30" height="30" as="geometry" />
        </mxCell>
        <mxCell id="VBIrDwcT7hmqIL0TSOzX-7" value="7" style="ellipse;whiteSpace=wrap;html=1;aspect=fixed;" vertex="1" parent="1">
          <mxGeometry x="370" y="400" width="30" height="30" as="geometry" />
        </mxCell>
        <mxCell id="VBIrDwcT7hmqIL0TSOzX-8" value="8" style="ellipse;whiteSpace=wrap;html=1;aspect=fixed;" vertex="1" parent="1">
          <mxGeometry x="360" y="470" width="30" height="30" as="geometry" />
        </mxCell>
        <mxCell id="VBIrDwcT7hmqIL0TSOzX-9" value="9" style="ellipse;whiteSpace=wrap;html=1;aspect=fixed;" vertex="1" parent="1">
          <mxGeometry x="370" y="550" width="30" height="30" as="geometry" />
        </mxCell>
        <mxCell id="VBIrDwcT7hmqIL0TSOzX-10" value="e" style="ellipse;whiteSpace=wrap;html=1;aspect=fixed;" vertex="1" parent="1">
          <mxGeometry x="590" y="370" width="30" height="30" as="geometry" />
        </mxCell>
        <mxCell id="VBIrDwcT7hmqIL0TSOzX-11" value="s" style="ellipse;whiteSpace=wrap;html=1;aspect=fixed;" vertex="1" parent="1">
          <mxGeometry x="70" y="390" width="30" height="30" as="geometry" />
        </mxCell>
        <mxCell id="VBIrDwcT7hmqIL0TSOzX-12" style="edgeStyle=orthogonalEdgeStyle;rounded=0;orthogonalLoop=1;jettySize=auto;html=1;exitX=0.5;exitY=1;exitDx=0;exitDy=0;" edge="1" parent="1" source="VBIrDwcT7hmqIL0TSOzX-9" target="VBIrDwcT7hmqIL0TSOzX-9">
          <mxGeometry relative="1" as="geometry" />
        </mxCell>
        <mxCell id="VBIrDwcT7hmqIL0TSOzX-13" value="2" style="endArrow=classic;html=1;rounded=0;" edge="1" parent="1" source="VBIrDwcT7hmqIL0TSOzX-5" target="VBIrDwcT7hmqIL0TSOzX-10">
          <mxGeometry width="50" height="50" relative="1" as="geometry">
            <mxPoint x="380" y="610" as="sourcePoint" />
            <mxPoint x="430" y="560" as="targetPoint" />
          </mxGeometry>
        </mxCell>
        <mxCell id="VBIrDwcT7hmqIL0TSOzX-14" value="2" style="endArrow=classic;html=1;rounded=0;" edge="1" parent="1" source="VBIrDwcT7hmqIL0TSOzX-6" target="VBIrDwcT7hmqIL0TSOzX-10">
          <mxGeometry width="50" height="50" relative="1" as="geometry">
            <mxPoint x="380" y="610" as="sourcePoint" />
            <mxPoint x="430" y="560" as="targetPoint" />
          </mxGeometry>
        </mxCell>
        <mxCell id="VBIrDwcT7hmqIL0TSOzX-15" value="2" style="endArrow=classic;html=1;rounded=0;" edge="1" parent="1" source="VBIrDwcT7hmqIL0TSOzX-7" target="VBIrDwcT7hmqIL0TSOzX-10">
          <mxGeometry width="50" height="50" relative="1" as="geometry">
            <mxPoint x="380" y="610" as="sourcePoint" />
            <mxPoint x="430" y="560" as="targetPoint" />
          </mxGeometry>
        </mxCell>
        <mxCell id="VBIrDwcT7hmqIL0TSOzX-16" value="2" style="endArrow=classic;html=1;rounded=0;" edge="1" parent="1" source="VBIrDwcT7hmqIL0TSOzX-8" target="VBIrDwcT7hmqIL0TSOzX-10">
          <mxGeometry width="50" height="50" relative="1" as="geometry">
            <mxPoint x="380" y="610" as="sourcePoint" />
            <mxPoint x="430" y="560" as="targetPoint" />
          </mxGeometry>
        </mxCell>
        <mxCell id="VBIrDwcT7hmqIL0TSOzX-17" value="3" style="endArrow=classic;html=1;rounded=0;" edge="1" parent="1" source="VBIrDwcT7hmqIL0TSOzX-9" target="VBIrDwcT7hmqIL0TSOzX-10">
          <mxGeometry width="50" height="50" relative="1" as="geometry">
            <mxPoint x="380" y="610" as="sourcePoint" />
            <mxPoint x="430" y="560" as="targetPoint" />
          </mxGeometry>
        </mxCell>
        <mxCell id="VBIrDwcT7hmqIL0TSOzX-29" value="" style="endArrow=classic;html=1;rounded=0;" edge="1" parent="1" source="VBIrDwcT7hmqIL0TSOzX-3" target="VBIrDwcT7hmqIL0TSOzX-5">
          <mxGeometry width="50" height="50" relative="1" as="geometry">
            <mxPoint x="380" y="610" as="sourcePoint" />
            <mxPoint x="430" y="560" as="targetPoint" />
          </mxGeometry>
        </mxCell>
        <mxCell id="VBIrDwcT7hmqIL0TSOzX-30" value="" style="endArrow=classic;html=1;rounded=0;" edge="1" parent="1" source="VBIrDwcT7hmqIL0TSOzX-2" target="VBIrDwcT7hmqIL0TSOzX-6">
          <mxGeometry width="50" height="50" relative="1" as="geometry">
            <mxPoint x="380" y="610" as="sourcePoint" />
            <mxPoint x="430" y="560" as="targetPoint" />
          </mxGeometry>
        </mxCell>
        <mxCell id="VBIrDwcT7hmqIL0TSOzX-31" value="" style="endArrow=classic;html=1;rounded=0;" edge="1" parent="1" source="VBIrDwcT7hmqIL0TSOzX-1" target="VBIrDwcT7hmqIL0TSOzX-5">
          <mxGeometry width="50" height="50" relative="1" as="geometry">
            <mxPoint x="380" y="610" as="sourcePoint" />
            <mxPoint x="430" y="560" as="targetPoint" />
          </mxGeometry>
        </mxCell>
        <mxCell id="VBIrDwcT7hmqIL0TSOzX-32" value="" style="endArrow=classic;html=1;rounded=0;" edge="1" parent="1" source="VBIrDwcT7hmqIL0TSOzX-1" target="VBIrDwcT7hmqIL0TSOzX-6">
          <mxGeometry width="50" height="50" relative="1" as="geometry">
            <mxPoint x="380" y="610" as="sourcePoint" />
            <mxPoint x="430" y="560" as="targetPoint" />
          </mxGeometry>
        </mxCell>
        <mxCell id="VBIrDwcT7hmqIL0TSOzX-33" value="" style="endArrow=classic;html=1;rounded=0;entryX=0;entryY=0;entryDx=0;entryDy=0;" edge="1" parent="1" source="VBIrDwcT7hmqIL0TSOzX-1" target="VBIrDwcT7hmqIL0TSOzX-7">
          <mxGeometry width="50" height="50" relative="1" as="geometry">
            <mxPoint x="380" y="610" as="sourcePoint" />
            <mxPoint x="430" y="560" as="targetPoint" />
          </mxGeometry>
        </mxCell>
        <mxCell id="VBIrDwcT7hmqIL0TSOzX-34" value="" style="endArrow=classic;html=1;rounded=0;" edge="1" parent="1" source="VBIrDwcT7hmqIL0TSOzX-1" target="VBIrDwcT7hmqIL0TSOzX-8">
          <mxGeometry width="50" height="50" relative="1" as="geometry">
            <mxPoint x="380" y="610" as="sourcePoint" />
            <mxPoint x="430" y="560" as="targetPoint" />
          </mxGeometry>
        </mxCell>
        <mxCell id="VBIrDwcT7hmqIL0TSOzX-35" value="" style="endArrow=classic;html=1;rounded=0;" edge="1" parent="1" source="VBIrDwcT7hmqIL0TSOzX-2" target="VBIrDwcT7hmqIL0TSOzX-9">
          <mxGeometry width="50" height="50" relative="1" as="geometry">
            <mxPoint x="380" y="610" as="sourcePoint" />
            <mxPoint x="430" y="560" as="targetPoint" />
          </mxGeometry>
        </mxCell>
        <mxCell id="VBIrDwcT7hmqIL0TSOzX-36" value="" style="endArrow=classic;html=1;rounded=0;" edge="1" parent="1" source="VBIrDwcT7hmqIL0TSOzX-2" target="VBIrDwcT7hmqIL0TSOzX-7">
          <mxGeometry width="50" height="50" relative="1" as="geometry">
            <mxPoint x="380" y="610" as="sourcePoint" />
            <mxPoint x="430" y="560" as="targetPoint" />
          </mxGeometry>
        </mxCell>
        <mxCell id="VBIrDwcT7hmqIL0TSOzX-37" value="" style="endArrow=classic;html=1;rounded=0;" edge="1" parent="1" source="VBIrDwcT7hmqIL0TSOzX-2" target="VBIrDwcT7hmqIL0TSOzX-8">
          <mxGeometry width="50" height="50" relative="1" as="geometry">
            <mxPoint x="380" y="610" as="sourcePoint" />
            <mxPoint x="430" y="560" as="targetPoint" />
          </mxGeometry>
        </mxCell>
        <mxCell id="VBIrDwcT7hmqIL0TSOzX-38" value="" style="endArrow=classic;html=1;rounded=0;" edge="1" parent="1" source="VBIrDwcT7hmqIL0TSOzX-3" target="VBIrDwcT7hmqIL0TSOzX-6">
          <mxGeometry width="50" height="50" relative="1" as="geometry">
            <mxPoint x="380" y="610" as="sourcePoint" />
            <mxPoint x="430" y="560" as="targetPoint" />
          </mxGeometry>
        </mxCell>
        <mxCell id="VBIrDwcT7hmqIL0TSOzX-39" value="" style="endArrow=classic;html=1;rounded=0;" edge="1" parent="1" source="VBIrDwcT7hmqIL0TSOzX-3" target="VBIrDwcT7hmqIL0TSOzX-8">
          <mxGeometry width="50" height="50" relative="1" as="geometry">
            <mxPoint x="380" y="610" as="sourcePoint" />
            <mxPoint x="430" y="560" as="targetPoint" />
          </mxGeometry>
        </mxCell>
        <mxCell id="VBIrDwcT7hmqIL0TSOzX-40" value="" style="endArrow=classic;html=1;rounded=0;" edge="1" parent="1" source="VBIrDwcT7hmqIL0TSOzX-4" target="VBIrDwcT7hmqIL0TSOzX-5">
          <mxGeometry width="50" height="50" relative="1" as="geometry">
            <mxPoint x="380" y="610" as="sourcePoint" />
            <mxPoint x="430" y="560" as="targetPoint" />
          </mxGeometry>
        </mxCell>
        <mxCell id="VBIrDwcT7hmqIL0TSOzX-41" value="" style="endArrow=classic;html=1;rounded=0;" edge="1" parent="1" source="VBIrDwcT7hmqIL0TSOzX-4" target="VBIrDwcT7hmqIL0TSOzX-6">
          <mxGeometry width="50" height="50" relative="1" as="geometry">
            <mxPoint x="380" y="610" as="sourcePoint" />
            <mxPoint x="430" y="560" as="targetPoint" />
          </mxGeometry>
        </mxCell>
        <mxCell id="VBIrDwcT7hmqIL0TSOzX-42" value="" style="endArrow=classic;html=1;rounded=0;" edge="1" parent="1" source="VBIrDwcT7hmqIL0TSOzX-4" target="VBIrDwcT7hmqIL0TSOzX-7">
          <mxGeometry width="50" height="50" relative="1" as="geometry">
            <mxPoint x="380" y="610" as="sourcePoint" />
            <mxPoint x="430" y="560" as="targetPoint" />
          </mxGeometry>
        </mxCell>
        <mxCell id="VBIrDwcT7hmqIL0TSOzX-43" value="3" style="endArrow=classic;html=1;rounded=0;" edge="1" parent="1" source="VBIrDwcT7hmqIL0TSOzX-11" target="VBIrDwcT7hmqIL0TSOzX-1">
          <mxGeometry width="50" height="50" relative="1" as="geometry">
            <mxPoint x="380" y="610" as="sourcePoint" />
            <mxPoint x="430" y="560" as="targetPoint" />
          </mxGeometry>
        </mxCell>
        <mxCell id="VBIrDwcT7hmqIL0TSOzX-44" value="3" style="endArrow=classic;html=1;rounded=0;" edge="1" parent="1" source="VBIrDwcT7hmqIL0TSOzX-11" target="VBIrDwcT7hmqIL0TSOzX-2">
          <mxGeometry width="50" height="50" relative="1" as="geometry">
            <mxPoint x="380" y="610" as="sourcePoint" />
            <mxPoint x="430" y="560" as="targetPoint" />
          </mxGeometry>
        </mxCell>
        <mxCell id="VBIrDwcT7hmqIL0TSOzX-45" value="3" style="endArrow=classic;html=1;rounded=0;" edge="1" parent="1" source="VBIrDwcT7hmqIL0TSOzX-11" target="VBIrDwcT7hmqIL0TSOzX-3">
          <mxGeometry width="50" height="50" relative="1" as="geometry">
            <mxPoint x="380" y="610" as="sourcePoint" />
            <mxPoint x="430" y="560" as="targetPoint" />
          </mxGeometry>
        </mxCell>
        <mxCell id="VBIrDwcT7hmqIL0TSOzX-46" value="3" style="endArrow=classic;html=1;rounded=0;" edge="1" parent="1" source="VBIrDwcT7hmqIL0TSOzX-11" target="VBIrDwcT7hmqIL0TSOzX-4">
          <mxGeometry width="50" height="50" relative="1" as="geometry">
            <mxPoint x="380" y="610" as="sourcePoint" />
            <mxPoint x="430" y="560" as="targetPoint" />
          </mxGeometry>
        </mxCell>
      </root>
    </mxGraphModel>
  </diagram>
</mxfile>
